<svg width="21" height="24" viewBox="0 0 21 24" fill="none" xmlns="http://www.w3.org/2000/svg">
<path d="M9 13C10.6569 13 12 11.6569 12 10C12 8.34315 10.6569 7 9 7C7.34315 7 6 8.34315 6 10C6 11.6569 7.34315 13 9 13Z" stroke="black" stroke-width="1.5" stroke-linecap="round" stroke-linejoin="round"/>
<path d="M9 2C6.87827 2 4.84344 2.84285 3.34315 4.34315C1.84285 5.84344 1 7.87827 1 10C1 11.892 1.402 13.13 2.5 14.5L9 22L15.5 14.5C16.598 13.13 17 11.892 17 10C17 7.87827 16.1571 5.84344 14.6569 4.34315C13.1566 2.84285 11.1217 2 9 2Z" stroke="black" stroke-width="1.5" stroke-linecap="round" stroke-linejoin="round"/>
</svg>
