<svg width="21" height="24" viewBox="0 0 21 24" fill="none" xmlns="http://www.w3.org/2000/svg">
<path d="M5.59281 2.87891C6.1177 2.87891 8.21727 7.60294 8.21727 8.12783C8.21727 9.17761 6.64259 10.2274 6.1177 11.2772C5.59281 12.327 6.64259 13.3767 7.69237 14.4265C8.10179 14.8359 9.79194 16.5261 10.8417 16.0012C11.8915 15.4763 12.9413 13.9016 13.9911 13.9016C14.516 13.9016 19.24 16.0012 19.24 16.5261C19.24 18.6257 17.6653 20.2003 16.0906 20.7252C14.516 21.2501 13.4662 21.2501 11.3666 20.7252C9.26705 20.2003 7.69237 19.6755 5.06791 17.051C2.44345 14.4265 1.91856 12.8519 1.39367 10.7523C0.868777 8.65272 0.868777 7.60294 1.39367 6.02826C1.91856 4.45358 3.49324 2.87891 5.59281 2.87891Z" stroke="black" stroke-width="1.5" stroke-linecap="round" stroke-linejoin="round"/>
</svg>
