<svg width="21" height="24" viewBox="0 0 21 24" fill="none" xmlns="http://www.w3.org/2000/svg">
<path d="M10.3804 21.7608C15.561 21.7608 19.7608 17.561 19.7608 12.3804C19.7608 7.19974 15.561 3 10.3804 3C5.19974 3 1 7.19974 1 12.3804C1 17.561 5.19974 21.7608 10.3804 21.7608Z" stroke="black" stroke-width="1.5" stroke-miterlimit="10" stroke-linejoin="round"/>
<path d="M2.25391 8.00391H18.5133" stroke="black" stroke-width="1.5" stroke-miterlimit="10" stroke-linejoin="round"/>
<path d="M2.25391 16.7598H18.5133" stroke="black" stroke-width="1.5" stroke-miterlimit="10" stroke-linejoin="round"/>
<path d="M10.3814 3C10.3814 3 6.00391 6.1268 6.00391 12.3804C6.00391 18.634 10.3814 21.7608 10.3814 21.7608" stroke="black" stroke-width="1.5" stroke-miterlimit="10" stroke-linejoin="round"/>
<path d="M10.3828 3C10.3828 3 14.7603 6.1268 14.7603 12.3804C14.7603 18.634 10.3828 21.7608 10.3828 21.7608" stroke="black" stroke-width="1.5" stroke-miterlimit="10" stroke-linejoin="round"/>
</svg>
