<svg width="21" height="24" viewBox="0 0 21 24" fill="none" xmlns="http://www.w3.org/2000/svg">
<g clip-path="url(#clip0_2393_720)">
<path d="M5.44574 21.6289V17.3372H2.48191C2.08889 17.3372 1.71196 17.1811 1.43404 16.9032C1.15613 16.6253 1 16.2483 1 15.8553V5.48191C1 5.08889 1.15613 4.71196 1.43404 4.43404C1.71196 4.15613 2.08889 4 2.48191 4H18.783C19.176 4 19.5529 4.15613 19.8309 4.43404C20.1088 4.71196 20.2649 5.08889 20.2649 5.48191V15.8553C20.2649 16.2483 20.1088 16.6253 19.8309 16.9032C19.5529 17.1811 19.176 17.3372 18.783 17.3372H10.6324L6.07852 21.8912C6.02671 21.9431 5.96064 21.9785 5.88868 21.9928C5.81673 22.0072 5.74213 21.9999 5.67436 21.9718C5.60658 21.9437 5.54867 21.8961 5.50797 21.835C5.46727 21.774 5.44561 21.7022 5.44574 21.6289Z" stroke="black" stroke-width="1.5"/>
<path d="M5.44531 12.8911H15.8187M5.44531 8.44531H15.8187" stroke="black" stroke-width="1.5" stroke-linecap="round"/>
</g>
<defs>
<clipPath id="clip0_2393_720">
<rect width="21" height="24" fill="white"/>
</clipPath>
</defs>
</svg>
