<svg width="21" height="24" viewBox="0 0 21 24" fill="none" xmlns="http://www.w3.org/2000/svg">
<g clip-path="url(#clip0_2393_704)">
<path d="M14.9987 2.83203H4.9987C2.69751 2.83203 0.832031 4.69751 0.832031 6.9987V16.9987C0.832031 19.2999 2.69751 21.1654 4.9987 21.1654H14.9987C17.2999 21.1654 19.1654 19.2999 19.1654 16.9987V6.9987C19.1654 4.69751 17.2999 2.83203 14.9987 2.83203Z" stroke="black" stroke-width="1.5" stroke-linecap="round" stroke-linejoin="round"/>
<path d="M5.83203 9.08203C5.93123 10.421 6.38217 11.6944 7.12571 12.7354C7.86925 13.7764 8.87068 14.5362 9.9987 14.9154V9.08203M14.1654 9.08203C13.6098 10.4709 12.4987 11.4431 10.832 11.9987M10.832 11.9987C12.4987 12.5543 13.6098 13.5265 14.1654 14.9154M10.832 11.9987H9.9987" stroke="black" stroke-width="1.5" stroke-linecap="round" stroke-linejoin="round"/>
</g>
<defs>
<clipPath id="clip0_2393_704">
<rect width="20" height="20" fill="white" transform="translate(0 2)"/>
</clipPath>
</defs>
</svg>
